<svg xmlns="http://www.w3.org/2000/svg" width="21.7" height="15.625" viewBox="0 0 21.7 15.625"><g transform="translate(-910.2 -663.275)"><path d="M926.9,675.6a.945.945,0,0,1-1-1v-7a1,1,0,0,1,2,0v7A1,1,0,0,1,926.9,675.6Z"/><path d="M930.9,678.6a.945.945,0,0,1-1-1v-13a1,1,0,0,1,2,0v13A1,1,0,0,1,930.9,678.6Z"/><path d="M923,678.9a2.919,2.919,0,0,1-.9-.2l-8-4.5-1.7,1a1.4,1.4,0,0,1-2.1-1.2l-.1-5.9a1.387,1.387,0,0,1,.7-1.2,1.2,1.2,0,0,1,1.4,0l1.9,1.1,7.6-4.5a1.913,1.913,0,0,1,1.8,0,1.65,1.65,0,0,1,.9,1.5l.2,12.2a1.921,1.921,0,0,1-.9,1.6A1.948,1.948,0,0,1,923,678.9Zm-8.9-7,8.7,4.9-.1-11.4-8.3,4.9-2-1.1V673Z"/></g></svg>