<svg xmlns="http://www.w3.org/2000/svg" width="13.488" height="12" viewBox="0 0 13.488 12"><path d="M12.418,1.174A3.627,3.627,0,0,0,9.721,0,3.393,3.393,0,0,0,7.6.732a4.336,4.336,0,0,0-.857.895A4.334,4.334,0,0,0,5.888.732,3.393,3.393,0,0,0,3.768,0a3.627,3.627,0,0,0-2.7,1.174A4.216,4.216,0,0,0,0,4.054,5.02,5.02,0,0,0,1.338,7.34a28.526,28.526,0,0,0,3.349,3.143c.464.4.99.844,1.536,1.321a.792.792,0,0,0,1.043,0c.546-.478,1.072-.926,1.537-1.322A28.51,28.51,0,0,0,12.151,7.34a5.02,5.02,0,0,0,1.338-3.286,4.216,4.216,0,0,0-1.07-2.879Zm0,0" transform="translate(0)"/></svg>