<svg xmlns="http://www.w3.org/2000/svg" width="32.015" height="36" viewBox="0 0 32.015 36"><defs><style>.a,.b{fill:none;stroke:#000;stroke-width:3px;}.a{stroke-linecap:round;}</style></defs><g transform="translate(-0.4 -0.1)"><path class="a" d="M1.9,6.1A4.481,4.481,0,0,1,6.4,1.6h1a4.481,4.481,0,0,1,4.5,4.5v24a4.481,4.481,0,0,1-4.5,4.5h-1a4.481,4.481,0,0,1-4.5-4.5V13.5"/><g transform="translate(19.015)"><path class="b" d="M6.4,1.6h1a4.481,4.481,0,0,1,4.5,4.5v24a4.481,4.481,0,0,1-4.5,4.5h-1a4.481,4.481,0,0,1-4.5-4.5V6.1A4.481,4.481,0,0,1,6.4,1.6Z"/></g></g></svg>