<svg xmlns="http://www.w3.org/2000/svg" width="34.182" height="21.212" viewBox="0 0 34.182 21.212"><defs><style>.a{fill:none;stroke:#000;stroke-linecap:round;stroke-width:3px;}</style></defs><g transform="translate(-1115.925 -255.182)"><path class="a" d="M1116.74,271.279s6.693,0,10.688-2.453l.133-.088c1.31-.792,2.486-3.95,3.962-6.414l.047-.078c4.074-6.8,10.688-5.518,12.777-4.926.02,0,.188.064.188.064" transform="translate(0.705 1.094)"/><path class="a" d="M1116.72,257.438s6.71-1.854,10.706.869c1.443.978,2.619,4.489,4.1,7.229l.047.086c4.074,7.562,10.492,6.847,12.581,6.189" transform="translate(0.705 0.983)"/><g transform="translate(1150.638 254) rotate(90)"><path d="M7.545,5.138H2.183A.5.5,0,0,1,1.8,4.312L4.486,1.2a.5.5,0,0,1,.757,0L7.924,4.312a.5.5,0,0,1-.379.827Z"/><path d="M4.864,1.531,2.183,4.638H7.545L4.866,1.531h0m0-1a1,1,0,0,1,.757.347L8.3,3.985a1,1,0,0,1-.757,1.653H2.183a1,1,0,0,1-.757-1.653L4.107.878A1,1,0,0,1,4.864.531Z"/></g><g transform="translate(1150.638 267.847) rotate(90)"><path d="M7.545,5.138H2.183A.5.5,0,0,1,1.8,4.312L4.486,1.2a.5.5,0,0,1,.757,0L7.924,4.312a.5.5,0,0,1-.379.827Z"/><path d="M4.864,1.531,2.183,4.638H7.545L4.866,1.531h0m0-1a1,1,0,0,1,.757.347L8.3,3.985a1,1,0,0,1-.757,1.653H2.183a1,1,0,0,1-.757-1.653L4.107.878A1,1,0,0,1,4.864.531Z"/></g></g></svg>