<svg xmlns="http://www.w3.org/2000/svg" width="297.201" height="444.576" viewBox="0 0 297.201 444.576"><defs><style>.a{fill:#fff;}.b{fill:#040000;}</style></defs><g transform="matrix(0.966, -0.259, 0.259, 0.966, -2.957, 51.618)"><path class="a" d="M154,314a46.01,46.01,0,0,0-44.75,35.35L26.52,60.83l11.23-6.52L22.77,2.06,10.67,5.53l-.14-.48L3.8,6.98,109,369.55A46,46,0,1,0,154,314Z"/><path class="b" d="M107.14,358.47,6.27,8.35,21.74,3.92,35.98,53.6,23.95,60.59a1.5,1.5,0,0,0,.76,2.8,1.531,1.531,0,0,0,.75-.2L38.5,55.62a1.508,1.508,0,0,0,.69-1.71L24.21,1.65A1.5,1.5,0,0,0,22.35.62L4,5.88A1.5,1.5,0,0,0,2.97,7.74h0L108.46,373.92h.01c.02.06.03.12.05.18a45.086,45.086,0,0,0,13.55,21.55,47.831,47.831,0,1,0,31.75-83.71c-16.94-.04-40.17,13.85-42.57,28.37a1.5,1.5,0,0,0,1.47,1.74A1.1,1.1,0,0,0,114,341c2.27-13.02,24.46-26.11,39.82-26.07a44.83,44.83,0,1,1-29.76,78.46,42.092,42.092,0,0,1-12.65-20.12"/></g></svg>